<svg width="182" height="156" viewBox="0 0 182 156" fill="none" xmlns="http://www.w3.org/2000/svg">
<g clip-path="url(#clip0_120_199)">
<path d="M53.4863 154.372C56.4079 151.9 58.1826 147.995 57.7172 144.194C57.2518 140.392 54.3692 136.897 50.6301 136.09C46.891 135.283 42.6287 137.517 41.493 141.175C40.868 134.124 40.1477 126.777 36.4038 120.772C33.0137 115.335 27.142 111.445 20.7785 110.749C14.4149 110.053 7.71492 112.681 3.74621 117.711C-0.222508 122.74 -1.19423 130.051 1.58536 135.825C3.63298 140.079 7.40542 143.244 11.358 145.819C24.1302 154.071 39.4488 157.427 54.4953 155.269" fill="#F2F2F2"/>
<path d="M10.039 112.827C15.2897 117.109 20.1067 121.899 24.4203 127.126C31.171 135.279 36.6338 144.42 40.6183 154.23C40.9099 154.946 39.7493 155.257 39.4609 154.549C36.927 148.347 33.7922 142.408 30.1013 136.818C24.3458 128.085 17.2945 120.282 9.19031 113.677C8.59111 113.188 9.44476 112.343 10.039 112.827Z" fill="white"/>
<path d="M55.5043 154.372C52.5826 151.9 50.808 147.995 51.2734 144.194C51.7388 140.392 54.6214 136.897 58.3605 136.09C62.0995 135.283 66.3619 137.517 67.4976 141.175C68.1226 134.124 68.8428 126.777 72.5868 120.772C75.9769 115.335 81.8485 111.445 88.2121 110.749C94.5756 110.053 101.276 112.681 105.244 117.711C109.213 122.74 110.185 130.051 107.405 135.825C105.358 140.079 101.585 143.244 97.6326 145.819C84.8603 154.071 69.5418 157.427 54.4953 155.269" fill="#F2F2F2"/>
<path d="M98.9515 112.827C93.7008 117.109 88.8838 121.899 84.5703 127.126C77.8195 135.279 72.3568 144.42 68.3723 154.23C68.0806 154.946 69.2413 155.257 69.5297 154.549C76.049 138.606 86.4565 124.553 99.8003 113.677C100.399 113.188 99.5458 112.343 98.9515 112.827Z" fill="white"/>
<path d="M64.1742 70.1763C69.5792 70.1763 73.9608 65.789 73.9608 60.3769C73.9608 54.9649 69.5792 50.5775 64.1742 50.5775C58.7691 50.5775 54.3875 54.9649 54.3875 60.3769C54.3875 65.789 58.7691 70.1763 64.1742 70.1763Z" fill="#F2F2F2"/>
<path d="M33.9993 26.5967H101.427V30.2905H42.607C39.1486 30.2905 35.7241 30.9726 32.5289 32.2978C29.3338 33.623 26.4306 35.5653 23.9852 38.0139C21.5398 40.4625 19.5999 43.3695 18.2765 46.5688C16.953 49.768 16.2718 53.197 16.2718 56.6599V98.6261H8.8938C8.56767 98.6261 8.2549 98.4964 8.02429 98.2655C7.79369 98.0346 7.66413 97.7214 7.66412 97.3949V52.9661C7.66412 49.5032 8.3453 46.0742 9.66876 42.8749C10.9922 39.6756 12.9321 36.7687 15.3775 34.3201C17.8229 31.8715 20.7261 29.9291 23.9212 28.6039C27.1164 27.2788 30.5409 26.5967 33.9993 26.5967Z" fill="#F2F2F2"/>
<path d="M46.9686 154.578V98.4681H63.385V154.578C63.3845 154.955 63.2347 155.316 62.9684 155.583C62.7021 155.85 62.341 156 61.9643 156H48.3893C48.0126 156 47.6515 155.85 47.3852 155.583C47.1189 155.316 46.9691 154.955 46.9686 154.578Z" fill="#3F3D56"/>
<path d="M4.19147 97.3617V51.7362C4.19966 44.4729 7.08486 37.5095 12.2141 32.3735C17.3433 27.2376 24.2977 24.3486 31.5516 24.3404H101.111V98.9423H5.76996C5.35146 98.9418 4.95025 98.7751 4.65433 98.4788C4.35841 98.1825 4.19195 97.7807 4.19147 97.3617ZM100.48 24.9726H31.5516C24.4651 24.9807 17.6712 27.803 12.6604 32.8204C7.6495 37.8378 4.83088 44.6406 4.82286 51.7362V97.3617C4.82314 97.6131 4.92301 97.8542 5.10057 98.032C5.27812 98.2098 5.51886 98.3098 5.76996 98.31H100.48V24.9726Z" fill="#3F3D56"/>
<path d="M64.1742 65.4347C62.6676 65.433 61.2232 64.8329 60.1579 63.7662C59.0926 62.6995 58.4933 61.2532 58.4916 59.7447V18.9666C58.4913 18.7151 58.3915 18.4741 58.2139 18.2963C58.0364 18.1185 57.7956 18.0185 57.5445 18.0182H35.4456C35.0271 18.0178 34.6259 17.8511 34.33 17.5548C34.0341 17.2585 33.8676 16.8567 33.8671 16.4377V1.58055C33.8676 1.16151 34.0341 0.759771 34.33 0.463466C34.6259 0.167161 35.0271 0.000485241 35.4456 0H68.2783C68.6968 0.000479396 69.098 0.167155 69.3939 0.463461C69.6898 0.759767 69.8563 1.16151 69.8568 1.58055V59.7447C69.8551 61.2532 69.2558 62.6995 68.1905 63.7662C67.1252 64.8329 65.6808 65.433 64.1742 65.4347Z" fill="#B89088"/>
<path d="M103.637 23.7082C108.399 23.6982 112.971 25.583 116.345 28.9479C119.72 32.3129 121.621 36.8823 121.631 41.651V93.5909H156.99C158.41 93.5879 159.773 94.15 160.78 95.1536C161.786 96.1572 162.353 97.52 162.356 98.9422H85.6417V41.651C85.6517 36.8823 87.5532 32.3129 90.9279 28.9479C94.3026 25.583 98.874 23.6982 103.637 23.7082Z" fill="#3F3D56"/>
<path d="M99.3184 53.2858L103.045 68.698L175.933 51.0302L172.207 35.6179C172.162 35.4295 172.07 35.2555 171.94 35.1121C171.81 34.9686 171.646 34.8605 171.463 34.7976C171.328 34.75 171.185 34.7285 171.042 34.7341L128.909 12.8904C128.662 12.7641 128.378 12.7304 128.109 12.7953C127.839 12.8602 127.602 13.0194 127.439 13.2442L107.133 41.5972L99.4782 52.2889C99.4643 52.3076 99.4546 52.3291 99.4498 52.352C99.4449 52.3748 99.445 52.3984 99.4501 52.4211C99.2943 52.6808 99.247 52.9914 99.3184 53.2858Z" fill="white"/>
<path d="M99.4501 52.4211C99.4537 52.4412 99.4612 52.4603 99.4722 52.4774C99.4832 52.4946 99.4975 52.5094 99.5142 52.521C99.534 52.5345 99.5563 52.5439 99.5798 52.5486C99.6033 52.5532 99.6276 52.553 99.651 52.548C99.6891 52.5378 99.7225 52.5147 99.7454 52.4825L99.7716 52.446L100.17 51.8879L107.409 41.7837L127.709 13.4372C127.824 13.2765 127.994 13.1628 128.186 13.1166C128.379 13.0704 128.581 13.0949 128.757 13.1855L170.564 34.86L170.939 35.055C170.954 35.0614 170.97 35.0668 170.985 35.0713C171.014 35.0662 171.042 35.0634 171.071 35.0631C171.11 35.05 171.143 35.0223 171.163 34.9857C171.173 34.9665 171.179 34.9454 171.181 34.9237C171.183 34.9021 171.181 34.8802 171.174 34.8594C171.168 34.8386 171.158 34.8192 171.144 34.8025C171.13 34.7857 171.113 34.7719 171.094 34.7617L171.042 34.7341L128.909 12.8904C128.662 12.7641 128.378 12.7304 128.109 12.7953C127.839 12.8602 127.602 13.0194 127.439 13.2442L107.133 41.5972L99.4782 52.2889C99.4643 52.3076 99.4546 52.3291 99.4497 52.352C99.4449 52.3748 99.445 52.3984 99.4501 52.4211Z" fill="#3F3D56"/>
<path d="M121.341 53.9927L122.963 54.1729L135.005 55.5086L142.988 56.3935L143.459 56.446L153.42 48.6555L153.802 48.3571L156.154 46.5173L164.525 39.9719L164.575 39.5121L167.552 12.6067C167.593 12.2362 167.485 11.8648 167.252 11.5737C167.02 11.2827 166.682 11.0958 166.312 11.0541L126.579 6.64703C126.209 6.60658 125.838 6.71457 125.548 6.94736C125.257 7.18016 125.07 7.51879 125.029 7.88909L122.929 26.8675L121.764 37.3895L120.723 46.8027L120.24 51.1743L120.099 52.4405C120.059 52.8112 120.167 53.1826 120.4 53.4736C120.632 53.7645 120.971 53.9512 121.341 53.9927Z" fill="#E6E6E6"/>
<path d="M132.259 30.409L149.47 32.3177L155.574 32.9944C155.843 33.0243 156.116 33.0007 156.376 32.9251C156.637 32.8494 156.88 32.7232 157.091 32.5535C157.303 32.3838 157.479 32.1741 157.61 31.9362C157.741 31.6984 157.823 31.4371 157.853 31.1673C157.883 30.8974 157.859 30.6244 157.784 30.3637C157.708 30.1029 157.582 29.8597 157.413 29.6477C157.243 29.4358 157.034 29.2594 156.796 29.1285C156.559 28.9976 156.298 28.9149 156.028 28.885L148.437 28.0431L132.715 26.2976C132.171 26.2374 131.625 26.3961 131.197 26.7388C130.77 27.0815 130.496 27.5802 130.435 28.1252C130.375 28.6703 130.533 29.217 130.875 29.6453C131.217 30.0735 131.715 30.3482 132.259 30.409Z" fill="white"/>
<path d="M131.279 38.0323C131.324 38.0403 131.368 38.0482 131.414 38.0526L151.393 40.2688L154.728 40.6396C155.273 40.6999 155.819 40.5411 156.246 40.1983C156.674 39.8554 156.948 39.3566 157.008 38.8114C157.068 38.2663 156.91 37.7195 156.568 37.2914C156.225 36.8632 155.727 36.5889 155.182 36.5286L150.359 35.9942L134.533 34.2383L131.87 33.9428C131.337 33.8833 130.802 34.0335 130.378 34.3617C129.954 34.6899 129.674 35.1704 129.598 35.7015C129.521 36.2326 129.654 36.7727 129.967 37.2077C130.281 37.6427 130.752 37.9384 131.279 38.0323Z" fill="white"/>
<path d="M129.018 44.7919C129.182 45.0641 129.406 45.2948 129.673 45.4662C129.941 45.6375 130.244 45.7449 130.559 45.7799L138.748 46.688L153.332 48.3059L153.335 48.3051L153.802 48.3571L156.154 46.5173C156.169 46.3776 156.169 46.2367 156.155 46.0969C156.105 45.6276 155.897 45.1893 155.565 44.8545C155.233 44.5198 154.796 44.3086 154.328 44.2559L152.302 44.0305L144.265 43.14L138.483 42.4978L131.013 41.6689C130.63 41.6265 130.243 41.6921 129.896 41.8584C129.548 42.0247 129.254 42.285 129.047 42.6098C128.839 42.9347 128.726 43.3112 128.721 43.6968C128.716 44.0824 128.819 44.4618 129.018 44.7919Z" fill="white"/>
<path d="M140.52 21.0907L144.802 21.5656L146.694 21.7759L149.551 22.0925C150.095 22.1528 150.641 21.9941 151.069 21.6513C151.497 21.3084 151.771 20.8095 151.831 20.2644C151.891 19.7192 151.733 19.1725 151.39 18.7443C151.048 18.3162 150.55 18.0418 150.005 17.9815L140.976 16.9809C140.432 16.9203 139.886 17.0787 139.458 17.4213C139.031 17.7638 138.756 18.2624 138.696 18.8074C138.635 19.3524 138.794 19.8991 139.136 20.3273C139.478 20.7555 139.976 21.0301 140.52 21.0907Z" fill="white"/>
<path d="M105.504 32.5377L110.725 54.1323L119.439 55.7914L127.499 57.3279L136.147 58.9756L138.911 59.5022C139.072 59.5328 139.239 59.5285 139.399 59.4898C139.559 59.451 139.709 59.3785 139.839 59.2772L142.056 57.5435L143.459 56.446L153.42 48.6555L147.087 22.4584C147.024 22.1978 146.888 21.9608 146.694 21.7759C146.524 21.6123 146.315 21.4942 146.088 21.4325C145.86 21.3708 145.621 21.3674 145.392 21.4227L106.539 30.8405C106.177 30.9284 105.865 31.1566 105.671 31.4748C105.477 31.793 105.417 32.1753 105.504 32.5377Z" fill="#B89088"/>
<path d="M117.476 49.717C117.605 50.2497 117.94 50.7093 118.407 50.9948C118.875 51.2804 119.436 51.3686 119.968 51.24L142.766 45.7139C143.298 45.5842 143.757 45.2487 144.042 44.7808C144.327 44.3129 144.416 43.7509 144.287 43.218C144.282 43.1916 144.274 43.1655 144.265 43.14C144.12 42.6263 143.781 42.1888 143.321 41.9195C142.86 41.6501 142.313 41.5696 141.795 41.695L118.997 47.2211C118.465 47.3505 118.006 47.6861 117.721 48.154C117.435 48.622 117.347 49.1841 117.476 49.717Z" fill="white"/>
<path d="M119.439 55.7914L127.499 57.3279L144.574 53.1892C145.106 53.0602 145.565 52.7247 145.85 52.2567C146.136 51.7886 146.224 51.2262 146.095 50.6933C145.966 50.1603 145.631 49.7005 145.163 49.4148C144.696 49.1292 144.134 49.0412 143.602 49.1702L120.804 54.6964C120.328 54.8109 119.908 55.0926 119.621 55.4903C119.552 55.5853 119.491 55.686 119.439 55.7914Z" fill="white"/>
<path d="M136.147 58.9756L138.911 59.5022C139.072 59.5328 139.239 59.5285 139.399 59.4898C139.559 59.451 139.709 59.3785 139.839 59.2772L142.056 57.5435L136.147 58.9756Z" fill="white"/>
<path d="M122.069 38.1375C122.199 38.6702 122.534 39.1298 123.001 39.4154C123.468 39.7009 124.03 39.7891 124.562 39.6606L133.392 37.5202C133.924 37.3905 134.383 37.0549 134.668 36.587C134.953 36.1191 135.041 35.5571 134.913 35.0242C134.845 34.7379 134.715 34.4698 134.533 34.2383C134.289 33.9254 133.96 33.6895 133.585 33.5588C133.21 33.4281 132.806 33.4081 132.421 33.5012L123.59 35.6416C123.058 35.7707 122.599 36.1061 122.314 36.5742C122.029 37.0423 121.941 37.6046 122.069 38.1375Z" fill="white"/>
<path d="M127.499 57.3278L136.148 58.9759L138.911 59.5027C139.072 59.5329 139.239 59.5285 139.398 59.4897C139.558 59.451 139.708 59.3788 139.838 59.2778L142.057 57.5437L141.278 57.7324L139.635 59.0161C139.542 59.0882 139.435 59.1398 139.321 59.1675C139.206 59.1952 139.088 59.1983 138.972 59.1767L136.927 58.7872L128.277 57.1391L127.499 57.3278ZM153.335 48.3064L153.419 48.6547L153.803 48.356L153.335 48.3064ZM127.499 57.3278L136.148 58.9759L138.911 59.5027C139.072 59.5329 139.239 59.5285 139.398 59.4897C139.558 59.451 139.708 59.3788 139.838 59.2778L142.057 57.5437L141.278 57.7324L139.635 59.0161C139.542 59.0882 139.435 59.1398 139.321 59.1675C139.206 59.1952 139.088 59.1983 138.972 59.1767L136.927 58.7872L128.277 57.1391L127.499 57.3278ZM127.499 57.3278L136.148 58.9759L138.911 59.5027C139.072 59.5329 139.239 59.5285 139.398 59.4897C139.558 59.451 139.708 59.3788 139.838 59.2778L142.057 57.5437L141.278 57.7324L139.635 59.0161C139.542 59.0882 139.435 59.1398 139.321 59.1675C139.206 59.1952 139.088 59.1983 138.972 59.1767L136.927 58.7872L128.277 57.1391L127.499 57.3278ZM99.3184 53.2858L109.079 93.6562C109.151 93.9545 109.339 94.2118 109.6 94.3718C109.862 94.5317 110.176 94.5811 110.475 94.5091L181.116 77.3862C181.413 77.3137 181.671 77.1258 181.83 76.8637C181.99 76.6016 182.039 76.2868 181.967 75.9883L172.207 35.6179C172.162 35.4295 172.07 35.2555 171.94 35.1121C171.81 34.9687 171.646 34.8605 171.463 34.7976C171.328 34.75 171.185 34.7285 171.042 34.7341C170.875 34.739 170.711 34.782 170.564 34.86C170.496 34.8924 170.431 34.9324 170.372 34.9792L164.575 39.5122L156.155 46.0978L153.334 48.304L153.335 48.3064L153.332 48.3069L142.988 56.3924L141.278 57.7324L139.635 59.0161C139.542 59.0882 139.435 59.1398 139.321 59.1675C139.206 59.1952 139.088 59.1983 138.972 59.1767L136.927 58.7872L128.277 57.1391L119.62 55.4904L100.659 51.8774C100.497 51.8453 100.33 51.8489 100.17 51.8879C99.9546 51.9407 99.7587 52.0543 99.6057 52.2154C99.5472 52.2786 99.495 52.3476 99.4501 52.4211C99.2943 52.6808 99.247 52.9914 99.3184 53.2858ZM127.499 57.3278L136.148 58.9759L138.911 59.5027C139.072 59.5329 139.239 59.5285 139.398 59.4897C139.558 59.451 139.708 59.3788 139.838 59.2778L142.057 57.5437L141.278 57.7324L139.635 59.0161C139.542 59.0882 139.435 59.1398 139.321 59.1675C139.206 59.1952 139.088 59.1983 138.972 59.1767L136.927 58.7872L128.277 57.1391L127.499 57.3278ZM127.499 57.3278L136.148 58.9759L138.911 59.5027C139.072 59.5329 139.239 59.5285 139.398 59.4897C139.558 59.451 139.708 59.3788 139.838 59.2778L142.057 57.5437L141.278 57.7324L139.635 59.0161C139.542 59.0882 139.435 59.1398 139.321 59.1675C139.206 59.1952 139.088 59.1983 138.972 59.1767L136.927 58.7872L128.277 57.1391L127.499 57.3278ZM127.499 57.3278L136.148 58.9759L138.911 59.5027C139.072 59.5329 139.239 59.5285 139.398 59.4897C139.558 59.451 139.708 59.3788 139.838 59.2778L142.057 57.5437L141.278 57.7324L139.635 59.0161C139.542 59.0882 139.435 59.1398 139.321 59.1675C139.206 59.1952 139.088 59.1983 138.972 59.1767L136.927 58.7872L128.277 57.1391L127.499 57.3278Z" fill="white"/>
<path d="M127.499 57.3278L136.148 58.9759L138.911 59.5026C139.072 59.5329 139.239 59.5285 139.398 59.4897C139.558 59.451 139.708 59.3788 139.838 59.2778L142.057 57.5437L141.278 57.7324L139.635 59.0161C139.542 59.0882 139.435 59.1398 139.321 59.1675C139.206 59.1952 139.088 59.1983 138.972 59.1767L136.927 58.7872L128.277 57.1391L127.499 57.3278ZM153.335 48.3064L153.419 48.6547L153.803 48.356L153.335 48.3064ZM127.499 57.3278L136.148 58.9759L138.911 59.5026C139.072 59.5329 139.239 59.5285 139.398 59.4897C139.558 59.451 139.708 59.3788 139.838 59.2778L142.057 57.5437L141.278 57.7324L139.635 59.0161C139.542 59.0882 139.435 59.1398 139.321 59.1675C139.206 59.1952 139.088 59.1983 138.972 59.1767L136.927 58.7872L128.277 57.1391L127.499 57.3278ZM127.499 57.3278L136.148 58.9759L138.911 59.5026C139.072 59.5329 139.239 59.5285 139.398 59.4897C139.558 59.451 139.708 59.3788 139.838 59.2778L142.057 57.5437L141.278 57.7324L139.635 59.0161C139.542 59.0882 139.435 59.1398 139.321 59.1675C139.206 59.1952 139.088 59.1983 138.972 59.1767L136.927 58.7872L128.277 57.1391L127.499 57.3278ZM99.7717 52.446L99.8146 52.4783C99.8218 52.4665 99.8343 52.4559 99.8437 52.4436C99.9394 52.3439 100.058 52.2696 100.19 52.2272C100.321 52.1849 100.461 52.1758 100.597 52.2009L119.439 55.79L127.499 57.3278L136.148 58.9759L138.911 59.5026C139.072 59.5329 139.239 59.5285 139.398 59.4897C139.558 59.451 139.708 59.3788 139.838 59.2778L142.057 57.5437L141.278 57.7324L139.635 59.0161C139.542 59.0882 139.435 59.1398 139.321 59.1675C139.206 59.1952 139.088 59.1983 138.972 59.1767L136.927 58.7872L128.277 57.1391L119.62 55.4904L100.659 51.8773C100.497 51.8453 100.33 51.8489 100.17 51.8879L99.7717 52.446ZM99.3184 53.2858L109.079 93.6562C109.151 93.9545 109.339 94.2118 109.6 94.3718C109.862 94.5317 110.176 94.5811 110.475 94.5091L181.116 77.3862C181.413 77.3137 181.671 77.1258 181.83 76.8637C181.99 76.6016 182.039 76.2868 181.967 75.9883L172.207 35.6179C172.162 35.4295 172.07 35.2555 171.94 35.1121C171.81 34.9687 171.646 34.8605 171.463 34.7976C171.328 34.75 171.185 34.7285 171.042 34.7341C170.875 34.739 170.711 34.782 170.564 34.86C170.496 34.8924 170.431 34.9324 170.372 34.9792L164.575 39.5122L156.155 46.0978L153.334 48.304L153.335 48.3064L153.332 48.3069L142.988 56.3924L141.278 57.7324L139.635 59.0161C139.542 59.0882 139.435 59.1398 139.321 59.1675C139.206 59.1952 139.088 59.1983 138.972 59.1767L136.927 58.7872L128.277 57.1391L119.62 55.4904L100.659 51.8773C100.497 51.8453 100.33 51.8489 100.17 51.8879C99.9546 51.9407 99.7587 52.0543 99.6057 52.2154C99.5472 52.2786 99.495 52.3475 99.4501 52.4211C99.2943 52.6808 99.247 52.9914 99.3184 53.2858ZM99.6403 53.2078C99.6115 53.0888 99.6096 52.9648 99.6348 52.845C99.66 52.7252 99.7117 52.6125 99.786 52.5153C99.7927 52.501 99.8024 52.4884 99.8146 52.4783C99.8218 52.4665 99.8343 52.4559 99.8437 52.4436C99.9394 52.3439 100.058 52.2696 100.19 52.2272C100.321 52.1849 100.461 52.1758 100.597 52.2009L119.439 55.79L127.499 57.3278L136.148 58.9759L138.911 59.5026C139.072 59.5329 139.239 59.5285 139.398 59.4897C139.558 59.451 139.708 59.3788 139.838 59.2778L142.057 57.5437L143.46 56.4462L153.419 48.6547L153.803 48.356L156.153 46.517L164.525 39.9706L170.577 35.2379C170.669 35.1661 170.776 35.1147 170.889 35.0871C170.921 35.0794 170.953 35.0741 170.985 35.0713C171.014 35.0662 171.042 35.0634 171.071 35.0631C171.168 35.0622 171.264 35.0779 171.356 35.1095C171.486 35.155 171.603 35.2325 171.696 35.3348C171.789 35.4371 171.855 35.561 171.888 35.6954L181.648 76.0658C181.674 76.1715 181.678 76.2814 181.661 76.3889C181.645 76.4965 181.607 76.5997 181.55 76.6926C181.494 76.7856 181.419 76.8664 181.331 76.9305C181.244 76.9946 181.144 77.0408 181.038 77.0663L110.397 94.1893C110.184 94.2406 109.959 94.205 109.772 94.0904C109.585 93.9758 109.452 93.7915 109.4 93.5781L99.6403 53.2078ZM127.499 57.3278L136.148 58.9759L138.911 59.5026C139.072 59.5329 139.239 59.5285 139.398 59.4897C139.558 59.451 139.708 59.3788 139.838 59.2778L142.057 57.5437L141.278 57.7324L139.635 59.0161C139.542 59.0882 139.435 59.1398 139.321 59.1675C139.206 59.1952 139.088 59.1983 138.972 59.1767L136.927 58.7872L128.277 57.1391L127.499 57.3278ZM127.499 57.3278L136.148 58.9759L138.911 59.5026C139.072 59.5329 139.239 59.5285 139.398 59.4897C139.558 59.451 139.708 59.3788 139.838 59.2778L142.057 57.5437L141.278 57.7324L139.635 59.0161C139.542 59.0882 139.435 59.1398 139.321 59.1675C139.206 59.1952 139.088 59.1983 138.972 59.1767L136.927 58.7872L128.277 57.1391L127.499 57.3278ZM127.499 57.3278L136.148 58.9759L138.911 59.5026C139.072 59.5329 139.239 59.5285 139.398 59.4897C139.558 59.451 139.708 59.3788 139.838 59.2778L142.057 57.5437L141.278 57.7324L139.635 59.0161C139.542 59.0882 139.435 59.1398 139.321 59.1675C139.206 59.1952 139.088 59.1983 138.972 59.1767L136.927 58.7872L128.277 57.1391L127.499 57.3278Z" fill="#3F3D56"/>
<path d="M162.704 69.4547C162.545 68.7932 162.655 68.0955 163.009 67.5147C163.363 66.9339 163.932 66.5173 164.592 66.3565L173.508 64.1953C174.168 64.0379 174.863 64.1486 175.442 64.5034C176.02 64.8582 176.434 65.428 176.594 66.088C176.753 66.7481 176.645 67.4445 176.293 68.0249C175.941 68.6052 175.373 69.0221 174.714 69.1842L165.799 71.3453C165.138 71.5047 164.441 71.3951 163.861 71.0407C163.281 70.6863 162.865 70.1159 162.704 69.4547Z" fill="#B89088"/>
<path d="M64.1742 61.9574C65.3947 61.9574 66.3841 60.9668 66.3841 59.7447C66.3841 58.5226 65.3947 57.5319 64.1742 57.5319C62.9537 57.5319 61.9643 58.5226 61.9643 59.7447C61.9643 60.9668 62.9537 61.9574 64.1742 61.9574Z" fill="white"/>
</g>
<defs>
<clipPath id="clip0_120_199">
<rect width="182" height="156" fill="white"/>
</clipPath>
</defs>
</svg>
