<svg width="132" height="126" viewBox="0 0 132 126" fill="none" xmlns="http://www.w3.org/2000/svg">
<g clip-path="url(#clip0_13_123)">
<path d="M82.0139 73.2189H33.6638C32.0241 73.2169 30.4522 72.5264 29.2928 71.2989C28.1334 70.0713 27.4813 68.4069 27.4794 66.6709V6.54803C27.4813 4.81199 28.1334 3.14761 29.2928 1.92004C30.4522 0.692471 32.0241 0.00196103 33.6638 0H78.6456L88.1982 8.0618V66.6709C88.1963 68.4069 87.5442 70.0713 86.3848 71.2989C85.2254 72.5264 83.6535 73.2169 82.0139 73.2189Z" fill="#E6E6E6"/>
<path d="M33.6637 1.88504C32.4961 1.88643 31.3767 2.37816 30.5511 3.25234C29.7255 4.12652 29.2611 5.31176 29.2598 6.54803V66.6709C29.2611 67.9071 29.7255 69.0924 30.5511 69.9666C31.3767 70.8407 32.4961 71.3325 33.6637 71.3339H82.0139C83.1815 71.3325 84.3009 70.8407 85.1265 69.9666C85.9521 69.0924 86.4165 67.9071 86.4178 66.6709V8.96992L78.0229 1.88504H33.6637Z" fill="white"/>
<path d="M72.6098 19.3672H50.5966C50.4614 19.3672 50.3275 19.3389 50.2025 19.2841C50.0776 19.2294 49.9641 19.149 49.8684 19.0478C49.7728 18.9465 49.6969 18.8263 49.6452 18.694C49.5934 18.5617 49.5668 18.4199 49.5668 18.2767C49.5668 18.1335 49.5934 17.9917 49.6452 17.8594C49.6969 17.7272 49.7728 17.6069 49.8684 17.5057C49.9641 17.4044 50.0776 17.3241 50.2025 17.2693C50.3275 17.2145 50.4614 17.1863 50.5966 17.1863H72.6098C72.745 17.1863 72.8789 17.2145 73.0039 17.2693C73.1288 17.3241 73.2424 17.4044 73.338 17.5057C73.4336 17.6069 73.5095 17.7272 73.5612 17.8594C73.613 17.9917 73.6396 18.1335 73.6396 18.2767C73.6396 18.4199 73.613 18.5617 73.5612 18.694C73.5095 18.8263 73.4336 18.9465 73.338 19.0478C73.2424 19.149 73.1288 19.2294 73.0039 19.2841C72.8789 19.3389 72.745 19.3672 72.6098 19.3672Z" fill="#CCCCCC"/>
<path d="M76.8579 23.0473H50.5966C50.3235 23.0473 50.0616 22.9324 49.8684 22.7279C49.6753 22.5234 49.5668 22.2461 49.5668 21.9569C49.5668 21.6677 49.6753 21.3903 49.8684 21.1858C50.0616 20.9814 50.3235 20.8665 50.5966 20.8665H76.8579C77.1311 20.8665 77.393 20.9814 77.5861 21.1858C77.7793 21.3903 77.8878 21.6677 77.8878 21.9569C77.8878 22.2461 77.7793 22.5234 77.5861 22.7279C77.393 22.9324 77.1311 23.0473 76.8579 23.0473Z" fill="#CCCCCC"/>
<path d="M72.6098 35.8598H50.5966C50.3235 35.8598 50.0616 35.7449 49.8684 35.5404C49.6753 35.3359 49.5668 35.0586 49.5668 34.7694C49.5668 34.4802 49.6753 34.2028 49.8684 33.9983C50.0616 33.7938 50.3235 33.6789 50.5966 33.6789H72.6098C72.8829 33.6789 73.1449 33.7938 73.338 33.9983C73.5311 34.2028 73.6396 34.4802 73.6396 34.7694C73.6396 35.0586 73.5311 35.3359 73.338 35.5404C73.1449 35.7449 72.8829 35.8598 72.6098 35.8598Z" fill="#CCCCCC"/>
<path d="M76.8579 39.54H50.5966C50.3235 39.54 50.0616 39.4251 49.8684 39.2206C49.6753 39.0161 49.5668 38.7387 49.5668 38.4495C49.5668 38.1603 49.6753 37.883 49.8684 37.6785C50.0616 37.474 50.3235 37.3591 50.5966 37.3591H76.8579C77.1311 37.3591 77.393 37.474 77.5861 37.6785C77.7793 37.883 77.8878 38.1603 77.8878 38.4495C77.8878 38.7387 77.7793 39.0161 77.5861 39.2206C77.393 39.4251 77.1311 39.54 76.8579 39.54Z" fill="#CCCCCC"/>
<path d="M72.6098 52.3524H50.5966C50.3235 52.3524 50.0616 52.2375 49.8684 52.033C49.6753 51.8285 49.5668 51.5512 49.5668 51.262C49.5668 50.9728 49.6753 50.6954 49.8684 50.4909C50.0616 50.2865 50.3235 50.1716 50.5966 50.1716H72.6098C72.8829 50.1716 73.1449 50.2865 73.338 50.4909C73.5311 50.6954 73.6396 50.9728 73.6396 51.262C73.6396 51.5512 73.5311 51.8285 73.338 52.033C73.1449 52.2375 72.8829 52.3524 72.6098 52.3524Z" fill="#CCCCCC"/>
<path d="M76.8579 56.0326H50.5966C50.3235 56.0326 50.0616 55.9177 49.8684 55.7132C49.6753 55.5087 49.5668 55.2314 49.5668 54.9422C49.5668 54.653 49.6753 54.3756 49.8684 54.1711C50.0616 53.9666 50.3235 53.8517 50.5966 53.8517H76.8579C77.1311 53.8517 77.393 53.9666 77.5861 54.1711C77.7793 54.3756 77.8878 54.653 77.8878 54.9422C77.8878 55.2314 77.7793 55.5087 77.5861 55.7132C77.393 55.9177 77.1311 56.0326 76.8579 56.0326Z" fill="#CCCCCC"/>
<path d="M41.4298 23.9709C43.4401 23.9709 45.0698 22.2453 45.0698 20.1168C45.0698 17.9883 43.4401 16.2628 41.4298 16.2628C39.4195 16.2628 37.7898 17.9883 37.7898 20.1168C37.7898 22.2453 39.4195 23.9709 41.4298 23.9709Z" fill="#31405D"/>
<path d="M41.0691 21.587C40.9872 21.5872 40.9075 21.5591 40.842 21.5071L40.8379 21.5039L39.9825 20.811C39.9026 20.746 39.8503 20.6501 39.8372 20.5443C39.824 20.4385 39.851 20.3315 39.9124 20.2469C39.9737 20.1622 40.0642 20.1068 40.1641 20.0927C40.264 20.0787 40.3651 20.1073 40.4451 20.1721L40.9992 20.622L42.3085 18.8134C42.3389 18.7714 42.3767 18.7362 42.4199 18.7098C42.4631 18.6834 42.5108 18.6662 42.5603 18.6593C42.6098 18.6524 42.6601 18.6558 42.7083 18.6695C42.7565 18.6831 42.8017 18.7067 42.8413 18.7389L42.8333 18.7509L42.8416 18.7389C42.9215 18.804 42.9738 18.8999 42.9869 19.0057C43.0001 19.1114 42.9731 19.2184 42.9119 19.3032L41.3718 21.4296C41.3362 21.4786 41.2904 21.5182 41.2379 21.5454C41.1855 21.5726 41.1279 21.5867 41.0695 21.5865L41.0691 21.587Z" fill="white"/>
<path d="M41.8046 40.4635C43.8149 40.4635 45.4446 38.738 45.4446 36.6094C45.4446 34.4809 43.8149 32.7554 41.8046 32.7554C39.7943 32.7554 38.1647 34.4809 38.1647 36.6094C38.1647 38.738 39.7943 40.4635 41.8046 40.4635Z" fill="#CCCCCC"/>
<path d="M41.4298 56.9561C43.4401 56.9561 45.0698 55.2306 45.0698 53.1021C45.0698 50.9736 43.4401 49.248 41.4298 49.248C39.4195 49.248 37.7898 50.9736 37.7898 53.1021C37.7898 55.2306 39.4195 56.9561 41.4298 56.9561Z" fill="#CCCCCC"/>
<path d="M88.0123 8.32125H80.5294C79.9831 8.32125 79.4593 8.09148 79.073 7.68249C78.6867 7.27351 78.4697 6.7188 78.4697 6.14041V0.288649C78.4697 0.263029 78.4765 0.237926 78.4894 0.216223C78.5022 0.194519 78.5206 0.177091 78.5424 0.165938C78.5642 0.154785 78.5885 0.150357 78.6125 0.153164C78.6366 0.155971 78.6594 0.165898 78.6784 0.181807L88.0922 8.0781C88.1131 8.09568 88.1284 8.11972 88.1359 8.14689C88.1433 8.17406 88.1426 8.20303 88.1338 8.22975C88.125 8.25648 88.1086 8.27965 88.0868 8.29605C88.065 8.31244 88.039 8.32125 88.0123 8.32125Z" fill="#E6E6E6"/>
<path d="M37.3585 84.4839L8.75207 90.8683C7.92538 91.0517 7.06372 90.8805 6.35612 90.3922C5.64851 89.9038 5.15276 89.1382 4.97762 88.2633L0.0688113 63.6051C-0.104469 62.7298 0.0572465 61.8175 0.518479 61.0682C0.979711 60.319 1.70279 59.7941 2.52909 59.6087L31.1355 53.2243C31.9622 53.0409 32.8238 53.2121 33.5314 53.7004C34.239 54.1888 34.7348 54.9544 34.9099 55.8293L39.8187 80.4875C39.992 81.3628 39.8303 82.2751 39.3691 83.0244C38.9078 83.7736 38.1847 84.2985 37.3585 84.4839Z" fill="white"/>
<path d="M37.3585 84.4839L8.75207 90.8683C7.92538 91.0517 7.06372 90.8805 6.35612 90.3922C5.64851 89.9038 5.15276 89.1382 4.97762 88.2633L0.0688113 63.6051C-0.104469 62.7298 0.0572465 61.8175 0.518479 61.0682C0.979711 60.319 1.70279 59.7941 2.52909 59.6087L31.1355 53.2243C31.9622 53.0409 32.8238 53.2121 33.5314 53.7004C34.239 54.1888 34.7348 54.9544 34.9099 55.8293L39.8187 80.4875C39.992 81.3628 39.8303 82.2751 39.3691 83.0244C38.9078 83.7736 38.1847 84.2985 37.3585 84.4839ZM2.60639 59.997C1.87731 60.1606 1.2393 60.6238 0.832332 61.2849C0.425362 61.9459 0.282669 62.7509 0.435557 63.5233L5.34437 88.1814C5.49891 88.9534 5.93634 89.6289 6.56069 90.0598C7.18505 90.4907 7.94534 90.6418 8.67477 90.48L37.2812 84.0956C38.0102 83.932 38.6482 83.4688 39.0552 82.8078C39.4622 82.1467 39.6049 81.3417 39.452 80.5694L34.5432 55.9112C34.3886 55.1392 33.9512 54.4637 33.3269 54.0328C32.7025 53.6019 31.9422 53.4508 31.2128 53.6127L2.60639 59.997Z" fill="#3F3D56"/>
<path d="M29.3581 61.3549L14.9209 64.5769C14.7945 64.608 14.6618 64.5871 14.5494 64.5185C14.4371 64.4498 14.3535 64.3386 14.3157 64.2073C14.2984 64.1388 14.2944 64.0673 14.3041 63.9971C14.3137 63.9269 14.3368 63.8596 14.3718 63.7992C14.4069 63.7387 14.4532 63.6865 14.5079 63.6457C14.5627 63.6048 14.6247 63.5762 14.6902 63.5616L29.3865 60.2817C29.9603 60.6241 29.7791 61.2609 29.3581 61.3549Z" fill="#CCCCCC"/>
<path d="M29.8919 64.0362L15.4547 67.2583C15.3283 67.2893 15.1956 67.2684 15.0832 67.1998C14.9709 67.1312 14.8873 67.0199 14.8495 66.8886C14.8322 66.8201 14.8282 66.7486 14.8379 66.6784C14.8475 66.6082 14.8706 66.5409 14.9056 66.4805C14.9407 66.4201 14.987 66.3678 15.0417 66.327C15.0965 66.2861 15.1585 66.2575 15.224 66.2429L29.9203 62.963C30.4941 63.3054 30.3129 63.9422 29.8919 64.0362Z" fill="#CCCCCC"/>
<path d="M12.6376 69.4815L8.23146 70.4649C8.08756 70.4968 7.93757 70.467 7.8144 70.382C7.69123 70.297 7.60494 70.1637 7.57448 70.0114L6.4785 64.5061C6.44832 64.3537 6.47646 64.1949 6.55674 64.0645C6.63703 63.9341 6.7629 63.8427 6.90674 63.8104L11.3128 62.8271C11.4567 62.7952 11.6067 62.825 11.7299 62.91C11.853 62.995 11.9393 63.1282 11.9698 63.2805L13.0658 68.7859C13.096 68.9382 13.0678 69.0971 12.9876 69.2275C12.9073 69.3579 12.7814 69.4492 12.6376 69.4815Z" fill="#CCCCCC"/>
<path d="M30.9429 69.5356L8.90894 74.4531C8.7826 74.4841 8.64984 74.4632 8.5375 74.3946C8.42516 74.326 8.34161 74.2148 8.30375 74.0834C8.28644 74.0149 8.28249 73.9434 8.29214 73.8732C8.3018 73.8031 8.32485 73.7357 8.3599 73.6753C8.39495 73.6149 8.44125 73.5626 8.49599 73.5218C8.55074 73.481 8.61277 73.4523 8.6783 73.4377L30.9714 68.4624C31.5452 68.8048 31.3638 69.4416 30.9429 69.5356Z" fill="#CCCCCC"/>
<path d="M31.4768 72.2177L9.44288 77.1352C9.31654 77.1663 9.18378 77.1454 9.07144 77.0767C8.9591 77.0081 8.87555 76.8969 8.83769 76.7655C8.82038 76.697 8.81643 76.6255 8.82608 76.5554C8.83574 76.4852 8.85879 76.4178 8.89384 76.3574C8.92889 76.297 8.97519 76.2448 9.02993 76.2039C9.08468 76.1631 9.14671 76.1345 9.21224 76.1198L31.5053 71.1445C32.0791 71.4869 31.8978 72.1238 31.4768 72.2177Z" fill="#CCCCCC"/>
<path d="M32.0104 74.8981L9.97646 79.8156C9.85012 79.8466 9.71737 79.8257 9.60502 79.7571C9.49268 79.6885 9.40914 79.5772 9.37128 79.4459C9.35397 79.3774 9.35002 79.3059 9.35967 79.2357C9.36933 79.1655 9.39238 79.0982 9.42743 79.0378C9.46248 78.9774 9.50878 78.9251 9.56353 78.8843C9.61827 78.8434 9.6803 78.8148 9.74583 78.8002L32.0389 73.8248C32.6127 74.1672 32.4314 74.8041 32.0104 74.8981Z" fill="#CCCCCC"/>
<path d="M32.5443 77.58L10.5104 82.4975C10.384 82.5285 10.2513 82.5076 10.1389 82.439C10.0266 82.3704 9.94304 82.2592 9.90519 82.1278C9.88787 82.0593 9.88392 81.9878 9.89358 81.9176C9.90323 81.8475 9.92628 81.7801 9.96133 81.7197C9.99638 81.6593 10.0427 81.607 10.0974 81.5662C10.1522 81.5254 10.2142 81.4967 10.2797 81.4821L32.5728 76.5068C33.1466 76.8492 32.9653 77.486 32.5443 77.58Z" fill="#CCCCCC"/>
<path d="M33.0779 80.2605L11.044 85.178C10.9177 85.2091 10.7849 85.1882 10.6726 85.1196C10.5602 85.0509 10.4767 84.9397 10.4388 84.8084C10.4215 84.7399 10.4176 84.6684 10.4272 84.5982C10.4369 84.528 10.4599 84.4607 10.495 84.4002C10.53 84.3398 10.5763 84.2876 10.6311 84.2468C10.6858 84.2059 10.7478 84.1773 10.8134 84.1627L33.1064 79.1873C33.6803 79.5297 33.4989 80.1666 33.0779 80.2605Z" fill="#CCCCCC"/>
<path d="M36.9674 67.9846C36.9173 68.0808 36.8745 68.1809 36.8393 68.2842L27.819 70.6543L26.2498 68.9354L23.4902 71.1039L25.9889 74.4326C26.1908 74.7016 26.4696 74.8939 26.7835 74.9808C27.0974 75.0676 27.4294 75.0444 27.7297 74.9144L37.5177 70.6796C37.8394 70.9303 38.2256 71.0714 38.6249 71.0841C39.0242 71.0968 39.4177 70.9804 39.753 70.7506C40.0883 70.5207 40.3496 70.1882 40.5021 69.7972C40.6546 69.4063 40.6911 68.9754 40.6066 68.562C40.5222 68.1486 40.3209 67.7722 40.0295 67.4828C39.7381 67.1935 39.3705 67.0049 38.9754 66.9423C38.5803 66.8796 38.1766 66.9457 37.8179 67.1319C37.4592 67.3181 37.1625 67.6155 36.9674 67.9846Z" fill="#A0616A"/>
<path d="M6.17761 89.0757C6.45883 88.9837 6.71758 88.8276 6.93564 88.6183C7.15371 88.409 7.32578 88.1517 7.43974 87.8643C7.5537 87.577 7.60678 87.2667 7.59523 86.9553C7.58369 86.644 7.5078 86.339 7.37292 86.0621L13.5805 67.7936L9.26955 66.9847L4.52325 85.1963C4.09881 85.4671 3.78292 85.8933 3.63544 86.3942C3.48796 86.8951 3.51914 87.4359 3.72306 87.914C3.92698 88.3922 4.28948 88.7746 4.74187 88.9887C5.19426 89.2028 5.70511 89.2337 6.17761 89.0757Z" fill="#A0616A"/>
<path d="M12.7921 71.0364L8.53573 69.3068C8.41462 69.2576 8.30496 69.1813 8.21421 69.0832C8.12345 68.985 8.05374 68.8673 8.00982 68.7381C7.96589 68.6089 7.94879 68.4711 7.95968 68.3343C7.97056 68.1974 8.00918 68.0646 8.07289 67.945L10.3058 63.7531C10.5472 63.0986 11.0238 62.5721 11.6312 62.289C12.2387 62.006 12.9273 61.9895 13.5462 62.2432C14.1651 62.4969 14.6637 63.0001 14.9328 63.6424C15.2018 64.2847 15.2194 65.0138 14.9815 65.6698L13.9966 70.3522C13.9684 70.4862 13.9132 70.6123 13.8348 70.7217C13.7564 70.8311 13.6567 70.9214 13.5424 70.9863C13.4281 71.0513 13.3019 71.0894 13.1724 71.098C13.0429 71.1067 12.9132 71.0856 12.7921 71.0364Z" fill="#E6D4D2"/>
<path d="M22.3994 123.374L24.697 123.374L25.7899 113.991L22.399 113.991L22.3994 123.374Z" fill="#A0616A"/>
<path d="M21.8133 122.58L26.3379 122.58H26.3381C26.7168 122.58 27.0918 122.659 27.4416 122.812C27.7914 122.965 28.1093 123.19 28.3771 123.474C28.6448 123.757 28.8572 124.094 29.0021 124.464C29.147 124.835 29.2216 125.232 29.2216 125.633V125.732L21.8135 125.732L21.8133 122.58Z" fill="#2F2E41"/>
<path d="M9.46857 123.374L11.7661 123.374L12.8591 113.991L9.46819 113.991L9.46857 123.374Z" fill="#A0616A"/>
<path d="M8.88247 122.58L13.4071 122.58H13.4073C13.786 122.58 14.1609 122.659 14.5107 122.812C14.8606 122.965 15.1785 123.19 15.4462 123.474C15.714 123.757 15.9264 124.094 16.0713 124.464C16.2162 124.835 16.2908 125.232 16.2908 125.633V125.732L8.88261 125.732L8.88247 122.58Z" fill="#2F2E41"/>
<g filter="url(#filter0_d_13_123)">
<path d="M11.8771 119.597H8.96963C8.85552 119.597 8.74259 119.573 8.63769 119.525C8.53279 119.478 8.43809 119.408 8.35934 119.321C8.28059 119.233 8.21942 119.13 8.17953 119.017C8.13964 118.903 8.12186 118.783 8.12728 118.662L9.50833 87.245L9.59535 87.2425L23.6355 86.8549L26.3829 118.29C26.3935 118.408 26.3818 118.527 26.3486 118.64C26.3153 118.753 26.2612 118.858 26.1894 118.948C26.1175 119.039 26.0293 119.114 25.93 119.168C25.8306 119.222 25.7221 119.255 25.6106 119.265L22.3449 119.541C22.1397 119.558 21.9357 119.496 21.7711 119.365C21.6066 119.234 21.4929 119.044 21.4515 118.83L17.2742 96.4526C17.2628 96.3846 17.2288 96.3232 17.1783 96.2795C17.1278 96.2359 17.0641 96.2129 16.9989 96.2146H16.9978C16.9324 96.2131 16.8686 96.2365 16.8182 96.2806C16.7677 96.3248 16.7339 96.3866 16.723 96.4549L12.7046 118.877C12.6665 119.08 12.5633 119.262 12.4124 119.394C12.2616 119.525 12.0724 119.597 11.8771 119.597Z" fill="#2F2E41"/>
</g>
<path d="M17.2031 59.225C19.7452 59.225 21.8059 57.043 21.8059 54.3515C21.8059 51.6599 19.7452 49.4779 17.2031 49.4779C14.661 49.4779 12.6003 51.6599 12.6003 54.3515C12.6003 57.043 14.661 59.225 17.2031 59.225Z" fill="#A0616A"/>
<path d="M15.6597 90.9267C13.4659 90.9267 11.2126 90.3161 9.34458 88.5109C9.24517 88.4155 9.16843 88.2966 9.12058 88.1639C9.07273 88.0312 9.05512 87.8884 9.06919 87.7471C9.26913 85.845 10.239 76.0239 9.6928 69.4635C9.58622 68.2381 9.75006 67.0032 10.1714 65.8564C10.5928 64.7095 11.2601 63.682 12.1207 62.855C12.9663 62.0298 13.9814 61.4241 15.0859 61.0854C16.1905 60.7468 17.3542 60.6846 18.4854 60.9037C18.5427 60.9145 18.6 60.926 18.6574 60.9376C22.3424 61.6927 24.9028 65.3037 24.6131 69.3371C24.1903 75.2225 23.8113 83.1831 24.4064 87.6851C24.4311 87.8692 24.4007 88.057 24.3195 88.222C24.2384 88.3869 24.1105 88.5209 23.9539 88.6051C22.5999 89.3294 19.2077 90.9267 15.6597 90.9267Z" fill="#E6D4D2"/>
<path d="M21.6658 71.3871C21.5578 71.311 21.4666 71.2112 21.3984 71.0943C21.3302 70.9775 21.2866 70.8465 21.2705 70.7102L20.7097 65.95C20.5317 65.2731 20.6145 64.549 20.9399 63.9365C21.2653 63.3241 21.8068 62.8733 22.4457 62.6829C23.0845 62.4925 23.7686 62.5782 24.348 62.921C24.9273 63.2638 25.3546 63.8359 25.5362 64.5118L27.3833 68.9091C27.436 69.0346 27.4625 69.1707 27.4611 69.308C27.4597 69.4454 27.4303 69.5808 27.375 69.705C27.3197 69.8293 27.2397 69.9394 27.1406 70.028C27.0414 70.1166 26.9254 70.1815 26.8005 70.2183L22.4082 71.5124C22.2833 71.5493 22.1522 71.5572 22.0241 71.5356C21.896 71.514 21.7738 71.4633 21.6658 71.3871Z" fill="#E6D4D2"/>
<path d="M15.5963 59.1562C15.1606 59.1647 14.7277 59.0818 14.3224 58.9122C14.1442 58.8394 13.9591 58.7796 13.7811 58.7068C12.2094 58.0639 11.1741 56.2916 11.137 54.508C11.0999 52.7245 11.9723 50.9934 13.2676 49.8525C14.563 48.7117 16.2408 48.1259 17.9208 47.9905C19.7305 47.8446 21.7683 48.3305 22.7795 49.9262C23.0487 50.351 23.2369 50.8664 23.0774 51.3792C23.0297 51.534 22.9443 51.6727 22.83 51.7816C22.3784 52.207 21.9282 51.8872 21.4678 51.8589C20.835 51.8201 20.2667 52.3624 20.0624 52.9977C19.8582 53.633 19.9481 54.3324 20.113 54.9804C20.2387 55.3703 20.3179 55.7753 20.3488 56.186C20.3621 56.3919 20.3255 56.5981 20.2425 56.7848C20.1595 56.9716 20.0329 57.1328 19.8745 57.2532C19.4791 57.5063 18.9598 57.3599 18.5642 57.1072C18.1686 56.8545 17.8267 56.5032 17.3993 56.3173C16.972 56.1314 16.3978 56.1726 16.1491 56.5849C16.07 56.7349 16.0165 56.8985 15.991 57.0681C15.768 58.1438 15.8193 58.0805 15.5963 59.1562Z" fill="#2F2E41"/>
<path d="M35.9192 126H0.31256C0.262857 126 0.21519 125.979 0.180046 125.942C0.144901 125.905 0.125156 125.854 0.125156 125.802C0.125156 125.749 0.144901 125.698 0.180046 125.661C0.21519 125.624 0.262857 125.603 0.31256 125.603H35.9192C35.9689 125.603 36.0166 125.624 36.0518 125.661C36.0869 125.698 36.1066 125.749 36.1066 125.802C36.1066 125.854 36.0869 125.905 36.0518 125.942C36.0166 125.979 35.9689 126 35.9192 126Z" fill="#CCCCCC"/>
<path d="M127.062 85.0509L101.564 100.194C100.827 100.631 99.9565 100.74 99.1434 100.498C98.3303 100.256 97.6411 99.6819 97.2271 98.9024L85.5837 76.9239C85.1713 76.1434 85.0681 75.2215 85.2968 74.3606C85.5256 73.4997 86.0675 72.77 86.8037 72.3316L112.301 57.1883C113.038 56.7517 113.909 56.6425 114.722 56.8846C115.535 57.1268 116.224 57.7006 116.639 58.4801L128.282 80.4586C128.694 81.2391 128.797 82.161 128.569 83.0219C128.34 83.8828 127.798 84.6125 127.062 85.0509Z" fill="white"/>
<path d="M127.062 85.0509L101.564 100.194C100.827 100.631 99.9565 100.74 99.1434 100.498C98.3303 100.256 97.6411 99.6819 97.2271 98.9024L85.5837 76.9239C85.1713 76.1434 85.0681 75.2215 85.2968 74.3606C85.5256 73.4997 86.0675 72.77 86.8037 72.3316L112.301 57.1883C113.038 56.7517 113.909 56.6425 114.722 56.8846C115.535 57.1268 116.224 57.7006 116.639 58.4801L128.282 80.4586C128.694 81.2391 128.797 82.161 128.569 83.0219C128.34 83.8828 127.798 84.6125 127.062 85.0509ZM86.987 72.6777C86.3374 73.0646 85.8593 73.7084 85.6575 74.468C85.4557 75.2277 85.5467 76.041 85.9105 76.7297L97.554 98.7082C97.9193 99.396 98.5274 99.9023 99.2448 100.116C99.9623 100.33 100.73 100.233 101.381 99.848L126.879 84.7048C127.528 84.3179 128.006 83.6741 128.208 82.9145C128.41 82.1548 128.319 81.3415 127.955 80.6528L116.312 58.6743C115.946 57.9865 115.338 57.4802 114.621 57.2665C113.903 57.0528 113.135 57.1492 112.485 57.5345L86.987 72.6777Z" fill="#3F3D56"/>
<path d="M112.9 65.5097L100.031 73.1523C99.9196 73.2219 99.787 73.244 99.6604 73.214C99.5338 73.1841 99.4227 73.1044 99.3495 72.991C99.3137 72.9311 99.2897 72.8641 99.2791 72.7941C99.2685 72.7241 99.2715 72.6525 99.2879 72.5838C99.3043 72.515 99.3338 72.4505 99.3745 72.3942C99.4152 72.3379 99.4663 72.291 99.5247 72.2563L112.624 64.4766C113.268 64.6218 113.275 65.2869 112.9 65.5097Z" fill="#CCCCCC"/>
<path d="M114.166 67.8996L101.297 75.5423C101.186 75.6119 101.053 75.6339 100.926 75.604C100.8 75.574 100.689 75.4943 100.616 75.381C100.58 75.3211 100.556 75.2541 100.545 75.184C100.535 75.114 100.538 75.0425 100.554 74.9737C100.57 74.905 100.6 74.8405 100.641 74.7842C100.681 74.7279 100.732 74.6809 100.791 74.6463L113.89 66.8665C114.534 67.0117 114.541 67.6768 114.166 67.8996Z" fill="#CCCCCC"/>
<path d="M99.2365 78.5552L95.3092 80.8876C95.1809 80.9637 95.0294 80.9827 94.8878 80.9405C94.7463 80.8984 94.6263 80.7985 94.5543 80.6628L91.9547 75.7557C91.8829 75.6199 91.8649 75.4594 91.9047 75.3096C91.9446 75.1597 92.0389 75.0327 92.1671 74.9564L96.0944 72.6239C96.2227 72.548 96.3742 72.529 96.5157 72.5711C96.6572 72.6133 96.7772 72.7131 96.8493 72.8488L99.4489 77.7559C99.5207 77.8917 99.5386 78.0522 99.4988 78.202C99.459 78.3519 99.3647 78.4789 99.2365 78.5552Z" fill="#CCCCCC"/>
<path d="M116.721 72.8153L97.0813 84.4793C96.9695 84.5489 96.8369 84.571 96.7103 84.5411C96.5838 84.5111 96.4726 84.4314 96.3994 84.318C96.3636 84.2581 96.3396 84.1911 96.329 84.1211C96.3185 84.0511 96.3215 83.9796 96.3378 83.9108C96.3542 83.8421 96.3837 83.7776 96.4244 83.7213C96.4651 83.665 96.5162 83.618 96.5747 83.5833L116.445 71.7821C117.089 71.9273 117.096 72.5925 116.721 72.8153Z" fill="#CCCCCC"/>
<path d="M117.987 75.2059L98.3478 86.87C98.236 86.9396 98.1034 86.9616 97.9768 86.9317C97.8502 86.9017 97.7391 86.822 97.6659 86.7087C97.6301 86.6488 97.6061 86.5818 97.5955 86.5118C97.5849 86.4417 97.5879 86.3702 97.6043 86.3014C97.6207 86.2327 97.6502 86.1682 97.6909 86.1119C97.7316 86.0556 97.7827 86.0087 97.8411 85.974L117.712 74.1727C118.356 74.3179 118.362 74.9831 117.987 75.2059Z" fill="#CCCCCC"/>
<path d="M119.253 77.595L99.6134 89.2591C99.5016 89.3287 99.369 89.3507 99.2425 89.3208C99.1159 89.2908 99.0048 89.2111 98.9316 89.0978C98.8957 89.0379 98.8718 88.9709 98.8612 88.9009C98.8506 88.8308 98.8536 88.7593 98.87 88.6905C98.8864 88.6218 98.9158 88.5573 98.9565 88.501C98.9972 88.4447 99.0484 88.3978 99.1068 88.3631L118.977 76.5618C119.621 76.707 119.628 77.3722 119.253 77.595Z" fill="#CCCCCC"/>
<path d="M120.519 79.9855L100.88 91.6495C100.768 91.7191 100.635 91.7412 100.509 91.7112C100.382 91.6813 100.271 91.6016 100.198 91.4882C100.162 91.4283 100.138 91.3613 100.128 91.2913C100.117 91.2213 100.12 91.1497 100.136 91.081C100.153 91.0122 100.182 90.9477 100.223 90.8914C100.264 90.8351 100.315 90.7882 100.373 90.7535L120.244 78.9523C120.888 79.0975 120.894 79.7626 120.519 79.9855Z" fill="#CCCCCC"/>
<path d="M121.785 82.3748L102.146 94.0388C102.034 94.1084 101.901 94.1305 101.775 94.1005C101.648 94.0706 101.537 93.9909 101.464 93.8775C101.428 93.8176 101.404 93.7506 101.393 93.6806C101.383 93.6106 101.386 93.539 101.402 93.4702C101.418 93.4015 101.448 93.337 101.489 93.2807C101.529 93.2244 101.58 93.1775 101.639 93.1428L121.509 81.3416C122.154 81.4868 122.16 82.1519 121.785 82.3748Z" fill="#CCCCCC"/>
<path d="M118.359 91.3283C118.466 91.0785 118.52 90.807 118.517 90.5328C118.514 90.2585 118.454 89.9883 118.342 89.7412C118.23 89.494 118.068 89.2759 117.867 89.1022C117.667 88.9285 117.433 88.8034 117.182 88.7358L116.648 82.0937L114.079 84.2392L114.98 90.2178C114.901 90.6718 114.981 91.1408 115.207 91.536C115.432 91.9312 115.787 92.2251 116.203 92.362C116.62 92.4989 117.069 92.4693 117.467 92.2788C117.864 92.0882 118.181 91.7501 118.359 91.3283Z" fill="#FFB8B8"/>
<path d="M116.696 88.0402L114.563 88.3096C114.455 88.3232 114.345 88.3131 114.24 88.2797C114.136 88.2463 114.039 88.1905 113.956 88.1156C113.873 88.0408 113.805 87.9486 113.757 87.8448C113.709 87.7409 113.682 87.6278 113.677 87.5123L113.366 79.8923L109.322 68.196C109.16 67.833 109.086 67.433 109.107 67.0322C109.128 66.6314 109.243 66.2424 109.442 65.9007C109.542 65.7356 109.655 65.5806 109.781 65.4377C110.03 65.154 110.34 64.9382 110.685 64.8086C111.029 64.679 111.398 64.6396 111.761 64.6936C112.134 64.7462 112.49 64.8922 112.799 65.1196C113.108 65.347 113.361 65.6492 113.538 66.0011L116.175 71.852C117.278 74.2993 117.799 76.9951 117.692 79.7043L117.394 87.2421C117.387 87.4393 117.313 87.6273 117.188 87.773C117.062 87.9188 116.892 88.0128 116.707 88.0387L116.696 88.0402Z" fill="#E8D6CA"/>
<path d="M124.272 120.973L122.294 121.892L118.005 114.252L120.924 112.895L124.272 120.973Z" fill="#FFB8B8"/>
<g filter="url(#filter1_d_13_123)">
<path d="M125.618 122.768L119.241 125.732L119.205 125.647C119.062 125.302 118.985 124.93 118.977 124.553C118.97 124.176 119.033 123.802 119.162 123.45C119.291 123.099 119.485 122.778 119.731 122.506C119.977 122.234 120.272 122.016 120.598 121.865L124.493 120.055L125.618 122.768Z" fill="#2F2E41"/>
</g>
<path d="M97.7192 123.515H95.5592L94.5316 114.694L97.7195 114.694L97.7192 123.515Z" fill="#FFB8B8"/>
<g filter="url(#filter2_d_13_123)">
<path d="M98.2699 125.732L91.3053 125.732V125.639C91.3053 125.262 91.3754 124.888 91.5116 124.54C91.6479 124.192 91.8475 123.876 92.0993 123.609C92.351 123.342 92.6498 123.131 92.9787 122.987C93.3076 122.843 93.6601 122.768 94.0161 122.768L98.2701 122.769L98.2699 125.732Z" fill="#2F2E41"/>
</g>
<g filter="url(#filter3_d_13_123)">
<path d="M118.749 120.499L106.716 92.0685C106.694 92.0152 106.658 91.9704 106.611 91.9402C106.564 91.9101 106.509 91.8961 106.455 91.9002C106.4 91.9043 106.348 91.9263 106.306 91.9632C106.263 92 106.233 92.0499 106.218 92.1059L98.8871 119.567C98.8387 119.759 98.7271 119.927 98.5724 120.039C98.4176 120.152 98.2299 120.203 98.0431 120.182L94.0391 119.758C93.8328 119.735 93.6431 119.628 93.5102 119.459C93.3773 119.291 93.3117 119.074 93.3273 118.855C94.6009 102.083 96.6085 86.2541 102.623 75.8919L102.655 75.8367L111.752 77.7255L123.897 118.675C123.957 118.886 123.937 119.114 123.841 119.309C123.744 119.504 123.58 119.652 123.382 119.72L119.719 120.966C119.532 121.031 119.328 121.019 119.148 120.932C118.969 120.846 118.826 120.692 118.749 120.499Z" fill="#2F2E41"/>
</g>
<path d="M107.052 61.3281C109.442 61.3281 111.379 59.2767 111.379 56.7463C111.379 54.2159 109.442 52.1645 107.052 52.1645C104.662 52.1645 102.725 54.2159 102.725 56.7463C102.725 59.2767 104.662 61.3281 107.052 61.3281Z" fill="#FFB8B8"/>
<path d="M102.064 76.6851L102.009 76.673L101.996 76.6151C101.413 74.0087 101.399 71.1643 101.954 68.1611C102.236 66.6262 103.02 65.2458 104.169 64.2631C105.318 63.2803 106.757 62.7582 108.234 62.7888C109.836 62.8232 111.365 63.5046 112.508 64.6934C113.651 65.8823 114.323 67.4888 114.384 69.1842C114.569 74.3496 112.576 78.8278 112.556 78.8724L112.526 78.938L102.064 76.6851Z" fill="#E8D6CA"/>
<path d="M90.4635 85.4016C90.7197 85.3615 90.9646 85.2624 91.1807 85.1113C91.3968 84.9602 91.579 84.7608 91.7145 84.527C91.85 84.2933 91.9354 84.0309 91.9647 83.7584C91.9941 83.486 91.9666 83.21 91.8844 82.95L96.8685 78.8771L93.7739 77.7529L89.5153 81.7929C89.1119 81.9682 88.7832 82.2941 88.5916 82.7089C88.4 83.1236 88.3587 83.5984 88.4756 84.0432C88.5925 84.488 88.8594 84.872 89.2258 85.1223C89.5922 85.3727 90.0326 85.4721 90.4635 85.4016Z" fill="#FFB8B8"/>
<path d="M93.1859 82.33C93.0236 82.4316 92.8324 82.4684 92.6467 82.4337C92.4611 82.399 92.2933 82.2952 92.1736 82.141L90.8044 80.3882C90.7348 80.2991 90.6834 80.1958 90.6533 80.0847C90.6232 79.9736 90.6151 79.8572 90.6294 79.7426C90.6438 79.628 90.6804 79.5178 90.7369 79.4189C90.7933 79.32 90.8685 79.2345 90.9576 79.1678L96.8389 74.764L103.935 64.8299C104.135 64.489 104.413 64.2066 104.743 64.0082C105.072 63.8098 105.443 63.7017 105.823 63.6938C106.007 63.6925 106.192 63.7095 106.373 63.7446C106.733 63.8124 107.073 63.9714 107.362 64.208C107.652 64.4446 107.883 64.7518 108.036 65.1034C108.197 65.464 108.273 65.8598 108.26 66.258C108.247 66.6563 108.144 67.0455 107.961 67.3933L102.706 76.4031L102.695 76.4228L93.1859 82.33Z" fill="#E8D6CA"/>
<path d="M107.826 56.462C107.507 55.9065 106.803 55.7496 106.192 55.813C105.581 55.8763 104.987 56.1037 104.373 56.0987C102.668 56.0847 101.352 53.8847 102.069 52.2469C102.657 50.9037 104.125 50.3139 105.453 49.851C108.237 48.8804 111.436 47.9479 113.962 49.5216C114.767 50.0379 115.428 50.7725 115.875 51.6495C116.323 52.5264 116.541 53.5139 116.507 54.51C116.45 55.7485 116.002 57.0207 116.381 58.194C116.818 59.5476 118.204 60.2738 119.514 60.6251C121.81 61.2409 124.23 61.1417 126.54 61.6941C128.851 62.2464 131.218 63.713 131.841 66.1324C132.25 67.7215 131.823 69.4323 131.116 70.8995C130.395 72.3965 129.393 73.7218 128.171 74.7944C126.949 75.8669 125.533 76.6641 124.01 77.1371C122.487 77.6101 120.889 77.7489 119.314 77.5451C117.738 77.3412 116.219 76.799 114.848 75.9517C112.056 74.225 110.039 71.3067 108.837 68.1278C108.156 66.2734 107.676 64.3429 107.407 62.3735C107.138 60.53 107.366 58.667 107.854 56.8744C107.877 56.8075 107.886 56.7361 107.881 56.665C107.877 56.594 107.858 56.5248 107.826 56.462Z" fill="#2F2E41"/>
<path d="M123.437 126H87.83C87.7803 126 87.7327 125.979 87.6975 125.942C87.6624 125.905 87.6426 125.854 87.6426 125.802C87.6426 125.749 87.6624 125.698 87.6975 125.661C87.7327 125.624 87.7803 125.603 87.83 125.603H123.437C123.486 125.603 123.534 125.624 123.569 125.661C123.604 125.698 123.624 125.749 123.624 125.802C123.624 125.854 123.604 125.905 123.569 125.942C123.534 125.979 123.486 126 123.437 126Z" fill="#CCCCCC"/>
</g>
<defs>
<filter id="filter0_d_13_123" x="4.12633" y="86.8549" width="26.2603" height="40.7425" filterUnits="userSpaceOnUse" color-interpolation-filters="sRGB">
<feFlood flood-opacity="0" result="BackgroundImageFix"/>
<feColorMatrix in="SourceAlpha" type="matrix" values="0 0 0 0 0 0 0 0 0 0 0 0 0 0 0 0 0 0 127 0" result="hardAlpha"/>
<feOffset dy="4"/>
<feGaussianBlur stdDeviation="2"/>
<feComposite in2="hardAlpha" operator="out"/>
<feColorMatrix type="matrix" values="0 0 0 0 0 0 0 0 0 0 0 0 0 0 0 0 0 0 0.25 0"/>
<feBlend mode="normal" in2="BackgroundImageFix" result="effect1_dropShadow_13_123"/>
<feBlend mode="normal" in="SourceGraphic" in2="effect1_dropShadow_13_123" result="shape"/>
</filter>
<filter id="filter1_d_13_123" x="114.977" y="120.055" width="14.6414" height="13.6776" filterUnits="userSpaceOnUse" color-interpolation-filters="sRGB">
<feFlood flood-opacity="0" result="BackgroundImageFix"/>
<feColorMatrix in="SourceAlpha" type="matrix" values="0 0 0 0 0 0 0 0 0 0 0 0 0 0 0 0 0 0 127 0" result="hardAlpha"/>
<feOffset dy="4"/>
<feGaussianBlur stdDeviation="2"/>
<feComposite in2="hardAlpha" operator="out"/>
<feColorMatrix type="matrix" values="0 0 0 0 0 0 0 0 0 0 0 0 0 0 0 0 0 0 0.25 0"/>
<feBlend mode="normal" in2="BackgroundImageFix" result="effect1_dropShadow_13_123"/>
<feBlend mode="normal" in="SourceGraphic" in2="effect1_dropShadow_13_123" result="shape"/>
</filter>
<filter id="filter2_d_13_123" x="87.3053" y="122.768" width="14.9648" height="10.9638" filterUnits="userSpaceOnUse" color-interpolation-filters="sRGB">
<feFlood flood-opacity="0" result="BackgroundImageFix"/>
<feColorMatrix in="SourceAlpha" type="matrix" values="0 0 0 0 0 0 0 0 0 0 0 0 0 0 0 0 0 0 127 0" result="hardAlpha"/>
<feOffset dy="4"/>
<feGaussianBlur stdDeviation="2"/>
<feComposite in2="hardAlpha" operator="out"/>
<feColorMatrix type="matrix" values="0 0 0 0 0 0 0 0 0 0 0 0 0 0 0 0 0 0 0.25 0"/>
<feBlend mode="normal" in2="BackgroundImageFix" result="effect1_dropShadow_13_123"/>
<feBlend mode="normal" in="SourceGraphic" in2="effect1_dropShadow_13_123" result="shape"/>
</filter>
<filter id="filter3_d_13_123" x="89.3251" y="75.8367" width="38.6061" height="53.1705" filterUnits="userSpaceOnUse" color-interpolation-filters="sRGB">
<feFlood flood-opacity="0" result="BackgroundImageFix"/>
<feColorMatrix in="SourceAlpha" type="matrix" values="0 0 0 0 0 0 0 0 0 0 0 0 0 0 0 0 0 0 127 0" result="hardAlpha"/>
<feOffset dy="4"/>
<feGaussianBlur stdDeviation="2"/>
<feComposite in2="hardAlpha" operator="out"/>
<feColorMatrix type="matrix" values="0 0 0 0 0 0 0 0 0 0 0 0 0 0 0 0 0 0 0.25 0"/>
<feBlend mode="normal" in2="BackgroundImageFix" result="effect1_dropShadow_13_123"/>
<feBlend mode="normal" in="SourceGraphic" in2="effect1_dropShadow_13_123" result="shape"/>
</filter>
<clipPath id="clip0_13_123">
<rect width="132" height="126" fill="white"/>
</clipPath>
</defs>
</svg>
